# xmcd
#
# Track frame offsets:
#	150
#	22530
#	38379
#	52602
#	73739
#	91544
#	106988
#	123920
#	140690
#	158829
#	173397
#	186521
#
# Disc length: 2704 seconds
# Revision: 0
# Processed by: cddbd v1.5.2PL0 Copyright (c) Steve Scherf et al.
# Submitted via: dBpowerAMP V12.0
#
DISCID=830a8e0c
DTITLE=Darin and Brooke Aldridge - Faster and Farther
DYEAR=2017
DGENRE=Country
TTITLE0=Kingdom Come
TTITLE1=Fit For A King
TTITLE2=Highway Of Heartache
TTITLE3=This River
TTITLE4=Someday Soon
TTITLE5=Mountains In Mississippi
TTITLE6=Eugene And Diane
TTITLE7=Lila
TTITLE8=Still Falling
TTITLE9=Sacred Lamb
TTITLE10=Cumberland Plateau
TTITLE11=Heaven Just Got Sweeter For You
EXTD=
EXTT0=
EXTT1=
EXTT2=
EXTT3=
EXTT4=
EXTT5=
EXTT6=
EXTT7=
EXTT8=
EXTT9=
EXTT10=
EXTT11=
PLAYORDER=
